<?xml version="1.0" encoding="UTF-8"?>
<svg width="72px" height="72px" viewBox="0 0 72 72" version="1.1" xmlns="http://www.w3.org/2000/svg" xmlns:xlink="http://www.w3.org/1999/xlink">
    <!-- Generator: Sketch 61.2 (89653) - https://sketch.com -->
    <title>Artboard Copy 7</title>
    <desc>Created with Sketch.</desc>
    <g id="Artboard-Copy-7" stroke="none" stroke-width="1" fill="none" fill-rule="evenodd">
        <path d="M36.246,9 C51.271,9 63.493,21.222 63.493,36.246 C63.493,51.27 51.271,63.492 36.246,63.492 C21.223,63.492 9,51.27 9,36.246 C9,21.222 21.223,9 36.246,9 Z M46.588,31.762 C39.142,31.762 39.132,39.18 39.132,39.218 C39.132,39.218 38.622,46.646 46.588,46.646 C46.588,46.646 52.584,46.987 53.184,42.265 C53.237,41.848 52.913,41.477 52.493,41.477 L50.409,41.477 C50.107,41.477 49.834,41.67 49.748,41.959 C49.566,42.576 48.926,43.565 46.701,43.565 C46.701,43.565 43.815,43.758 43.353,40.985 C43.283,40.568 43.618,40.192 44.041,40.192 L52.699,40.192 C53.071,40.192 53.379,39.899 53.392,39.526 C53.46,37.535 53.095,31.762 46.588,31.762 Z M31.097,26.82 L21.505,26.82 C21.223,26.82 20.994,27.049 20.994,27.33 L20.994,45.729 C20.994,46.011 21.223,46.239 21.505,46.239 L31.2256958,46.2391967 C32.1142699,46.2263142 37.268,45.9182241 37.268,40.504 C37.268,40.504 37.475,36.738 34.827,35.864 C34.583,35.783 34.548,35.45 34.778,35.334 C35.609,34.911 36.588,33.99 36.588,31.989 C36.588,28.522 34.168,26.82 31.097,26.82 Z M31.097,37.5929963 C31.097,37.5929963 33.148,37.574 33.1380364,40.267 C33.1380364,42.535 31.617,42.772 30.814,42.79 L25.815,42.79 C25.611,42.79 25.447,42.626 25.447,42.422 L25.447,37.961 C25.447,37.758 25.611,37.5929963 25.815,37.5929963 L31.097,37.5929963 Z M46.664,34.607 C48.924,34.607 49.457,36.295 49.583,37.133 C49.619,37.376 49.427,37.593 49.182,37.593 L43.771,37.593 C43.495,37.593 43.299,37.326 43.384,37.063 C43.661,36.205 44.472,34.607 46.664,34.607 Z M32.467,32.291 C32.467,34.313 31.664,34.607 30.747,34.607 L25.815,34.607 C25.611,34.607 25.447,34.442 25.447,34.238 L25.447,30.638 C25.447,30.434 25.611,30.269 25.815,30.269 L31.1169708,30.2697369 C31.2857245,30.2793163 32.467,30.4134286 32.467,32.291 Z M50.06,27.231 L42.777,27.231 C42.574,27.231 42.411,27.394 42.411,27.596 L42.411,29.257 C42.411,29.458 42.574,29.622 42.777,29.622 L50.06,29.622 C50.262,29.622 50.425,29.458 50.425,29.257 L50.425,27.596 C50.425,27.394 50.262,27.231 50.06,27.231 Z" id="Combined-Shape" fill="#919191"></path>
    </g>
</svg>