<?xml version="1.0" encoding="UTF-8"?>
<svg width="72px" height="72px" viewBox="0 0 72 72" version="1.1" xmlns="http://www.w3.org/2000/svg" xmlns:xlink="http://www.w3.org/1999/xlink">
    <!-- Generator: Sketch 61.2 (89653) - https://sketch.com -->
    <title>email-outline</title>
    <desc>Created with Sketch.</desc>
    <g id="email-outline" stroke="none" stroke-width="1" fill="none" fill-rule="evenodd">
        <g id="Group-3-Copy-2" transform="translate(8.000000, 9.000000)" fill="#FA5274" stroke="#000000">
            <path d="M27.293,-2.27373675e-13 C42.343,-2.27373675e-13 54.586,12.243 54.586,27.293 C54.586,42.342 42.343,54.586 27.293,54.586 C12.245,54.586 6.82121026e-13,42.342 6.82121026e-13,27.293 C6.82121026e-13,12.243 12.245,-2.27373675e-13 27.293,-2.27373675e-13 Z M36.626,16.145 L18.448,16.145 C14.577,16.145 11.439,19.283 11.439,23.154 L11.439,31.674 C11.439,35.545 14.577,38.683 18.448,38.683 L36.626,38.683 C40.497,38.683 43.635,35.545 43.635,31.674 L43.635,23.154 C43.635,19.283 40.497,16.145 36.626,16.145 Z" id="Combined-Shape"></path>
        </g>
        <path d="M22.4375,26.4583333 L35.5625,36.5416667 M49,27 L36,37" id="Combined-Shape" stroke="#000000" stroke-linecap="square"></path>
    </g>
</svg>