<?xml version="1.0" encoding="UTF-8"?>
<svg width="72px" height="72px" viewBox="0 0 72 72" version="1.1" xmlns="http://www.w3.org/2000/svg" xmlns:xlink="http://www.w3.org/1999/xlink">
    <!-- Generator: Sketch 61.2 (89653) - https://sketch.com -->
    <title>Artboard</title>
    <desc>Created with Sketch.</desc>
    <g id="Artboard" stroke="none" stroke-width="1" fill="none" fill-rule="evenodd">
        <path d="M36,9 C50.9116882,9 63,21.0883118 63,36 C63,50.9116882 50.9116882,63 36,63 C21.0883118,63 9,50.9116882 9,36 C9,21.0883118 21.0883118,9 36,9 Z M28.693865,20.1159768 C26.0582822,20.2411581 23.7171779,20.8449738 21.7809816,22.7742385 C19.8447853,24.7035033 19.2484663,27.04513 19.1159509,29.6886645 C18.9613497,32.4131987 18.9613497,40.5794377 19.1159509,43.3039719 C19.2411043,45.9475064 19.8447853,48.2891331 21.7809816,50.2183979 C23.7171779,52.1476626 26.0509202,52.7514783 28.693865,52.8840232 C31.4177914,53.0386589 39.5822086,53.0386589 42.306135,52.8840232 C44.9490798,52.7588419 47.290184,52.1550262 49.2190184,50.2183979 C51.1478528,48.2891331 51.7515337,45.9475064 51.8840491,43.3039719 C52.0386503,40.5794377 52.0386503,32.4205623 51.8840491,29.6960281 C51.7588957,27.0524936 51.1552147,24.7108669 49.2190184,22.7816021 C47.290184,20.8523374 44.9490798,20.2485217 42.306135,20.1159768 C39.5822086,19.9613411 31.4177914,19.9613411 28.693865,20.1159768 Z M35.503681,22.9730559 C37.903681,22.9730559 43.0644172,22.7816021 45.2288344,23.6357804 C46.6717791,24.2101417 47.7834356,25.3220462 48.3650307,26.7726766 C49.2263804,28.9449403 49.0276074,34.0994645 49.0276074,36.5 C49.0276074,38.9005355 49.2263804,44.0624233 48.3650307,46.2273234 C47.7907975,47.6705902 46.6791411,48.7824947 45.2288344,49.3642196 C43.0570552,50.2257615 37.903681,50.0269441 35.503681,50.0269441 C33.103681,50.0269441 27.9429448,50.2183979 25.7785276,49.3642196 C24.3355828,48.7898583 23.2239264,47.6779538 22.6423313,46.2273234 C21.7809816,44.0550597 21.9797546,38.9005355 21.9797546,36.5 C21.9797546,34.0994645 21.7883436,28.9375767 22.6423313,26.7726766 C23.2165644,25.3294098 24.3282209,24.2175053 25.7785276,23.6357804 C27.9503067,22.7742385 33.103681,22.9730559 35.503681,22.9730559 Z M35.503681,28.0392168 C30.8214724,28.0392168 27.0447853,31.8167466 27.0447853,36.5 C27.0447853,41.1832534 30.8214724,44.9607832 35.503681,44.9607832 C40.1858896,44.9607832 43.9625767,41.1832534 43.9625767,36.5 C43.9625767,31.8167466 40.1858896,28.0392168 35.503681,28.0392168 Z M35.503681,30.9993864 C38.5368098,30.9993864 41.0030675,33.4661944 41.0030675,36.5 C41.0030675,39.5338056 38.5294479,42.0006136 35.503681,42.0006136 C32.4779141,42.0006136 30.0042945,39.5338056 30.0042945,36.5 C30.0042945,33.4661944 32.4705521,30.9993864 35.503681,30.9993864 Z M44.308589,25.7196809 C43.2190184,25.7196809 42.3355828,26.6033136 42.3355828,27.6931273 C42.3355828,28.782941 43.2116564,29.6665737 44.308589,29.6665737 C45.3981595,29.6665737 46.2815951,28.7903046 46.2815951,27.6931273 C46.2815951,26.6033136 45.3981595,25.7196809 44.308589,25.7196809 Z" id="Combined-Shape" fill="#919191"></path>
    </g>
</svg>