<?xml version="1.0" encoding="UTF-8"?>
<svg width="72px" height="72px" viewBox="0 0 72 72" version="1.1" xmlns="http://www.w3.org/2000/svg" xmlns:xlink="http://www.w3.org/1999/xlink">
    <!-- Generator: Sketch 61.2 (89653) - https://sketch.com -->
    <title>insta-outline</title>
    <desc>Created with Sketch.</desc>
    <g id="insta-outline" stroke="none" stroke-width="1" fill="none" fill-rule="evenodd">
        <g id="Group-2-Copy" transform="translate(8.000000, 9.000000)">
            <path d="M50.844,26.885 C50.844,40.001 40.211,50.635 27.094,50.635 C13.978,50.635 3.344,40.001 3.344,26.885 C3.344,13.768 13.978,3.135 27.094,3.135 C40.211,3.135 50.844,13.768 50.844,26.885" id="Fill-75" fill="#FFFFFE"></path>
            <path d="M41.124,33.679 C41.124,37.578 37.963,40.739 34.064,40.739 L20.495,40.739 C16.596,40.739 13.435,37.578 13.435,33.679 L13.435,20.11 C13.435,16.211 16.596,13.05 20.495,13.05 L34.064,13.05 C37.963,13.05 41.124,16.211 41.124,20.11 L41.124,33.679 Z M44.344,20.11 C44.344,14.432 39.741,9.83 34.064,9.83 L20.495,9.83 C14.817,9.83 10.215,14.432 10.215,20.11 L10.215,33.679 C10.215,39.356 14.817,43.959 20.495,43.959 L34.064,43.959 C39.741,43.959 44.344,39.356 44.344,33.679 L44.344,20.11 Z M27.337,32.514 C24.36,32.514 21.939,30.092 21.939,27.115 C21.939,24.138 24.36,21.716 27.337,21.716 C30.315,21.716 32.736,24.138 32.736,27.115 C32.736,30.092 30.315,32.514 27.337,32.514 Z M27.337,18.686 C22.691,18.686 18.909,22.467 18.909,27.115 C18.909,31.762 22.691,35.543 27.337,35.543 C31.984,35.543 35.766,31.762 35.766,27.115 C35.766,22.467 31.984,18.686 27.337,18.686 Z M36.257,16.114 C35.15,16.114 34.251,17.012 34.251,18.12 C34.251,19.228 35.15,20.126 36.257,20.126 C37.365,20.126 38.264,19.228 38.264,18.12 C38.264,17.012 37.365,16.114 36.257,16.114 Z M27.114,54.229 C12.164,54.229 0,42.065 0,27.115 C0,12.164 12.164,-2.84217094e-13 27.114,-2.84217094e-13 C42.066,-2.84217094e-13 54.23,12.164 54.23,27.115 C54.23,42.065 42.066,54.229 27.114,54.229 L27.114,54.229 Z" id="Fill-76" stroke="#000000" fill="#FA5274"></path>
        </g>
    </g>
</svg>