<?xml version="1.0" encoding="UTF-8"?>
<svg width="72px" height="72px" viewBox="0 0 72 72" version="1.1" xmlns="http://www.w3.org/2000/svg" xmlns:xlink="http://www.w3.org/1999/xlink">
    <!-- Generator: Sketch 61.2 (89653) - https://sketch.com -->
    <title>Artboard Copy 8</title>
    <desc>Created with Sketch.</desc>
    <g id="Artboard-Copy-8" stroke="none" stroke-width="1" fill="none" fill-rule="evenodd">
        <path d="M36.246,9 C51.27,9 63.492,21.222 63.492,36.246 C63.492,51.27 51.27,63.492 36.246,63.492 C21.223,63.492 9,51.27 9,36.246 C9,21.222 21.223,9 36.246,9 Z M28.977,30.415 L23.727,30.415 C23.476,30.415 23.271,30.619 23.271,30.87 L23.271,48.494 C23.271,48.746 23.476,48.949 23.727,48.949 L28.977,48.949 C29.228,48.949 29.432,48.746 29.432,48.494 L29.432,30.87 C29.432,30.619 29.228,30.415 28.977,30.415 Z M44.556,29.98 C41.281,29.98 39.821,31.781 39.002,33.042 L39.002,33.042 L39.002,30.87 C39.002,30.619 38.798,30.415 38.547,30.415 L38.547,30.415 L33.307,30.415 C33.053,30.415 32.848,30.621 32.852,30.876 C32.906,33.749 32.853,45.974 32.8409963,48.494 C32.84,48.746 33.044,48.949 33.296,48.949 L33.296,48.949 L38.547,48.949 C38.798,48.949 39.002,48.745 39.002,48.494 L39.002,48.494 L39.002,38.598 C39.002,38.042 39.044,37.492 39.206,37.096 C39.652,35.988 40.664,34.843 42.366,34.843 C44.598,34.843 45.487,36.543 45.487,39.033 L45.487,39.033 L45.487,48.494 C45.487,48.746 45.691,48.949 45.942,48.949 L45.942,48.949 L51.194,48.949 C51.446,48.949 51.649,48.746 51.649,48.494 L51.649,48.494 L51.649,38.321 C51.649,32.629 48.61,29.98 44.556,29.98 Z M26.167,21.461 C24.346,21.461 22.869,22.938 22.869,24.76 C22.869,26.581 24.346,28.058 26.167,28.058 C27.989,28.058 29.466,26.581 29.466,24.76 C29.466,22.938 27.989,21.461 26.167,21.461 Z" id="Combined-Shape" fill="#919191"></path>
    </g>
</svg>